<svg xmlns="http://www.w3.org/2000/svg" viewBox="0 0 500 400" fill="none">
  <defs>
    <linearGradient id="bg" x1="0" y1="0" x2="500" y2="400">
      <stop offset="0%" stop-color="#18A058" stop-opacity="0.08"/>
      <stop offset="100%" stop-color="#0d7a3e" stop-opacity="0.12"/>
    </linearGradient>
  </defs>
  <rect width="500" height="400" rx="20" fill="url(#bg)"/>
  <rect x="160" y="80" width="180" height="240" rx="12" fill="#fff" stroke="#18A058" stroke-width="2" opacity="0.6"/>
  <rect x="175" y="100" width="150" height="8" rx="4" fill="#18A058" opacity="0.3"/>
  <rect x="175" y="120" width="120" height="8" rx="4" fill="#18A058" opacity="0.2"/>
  <rect x="175" y="140" width="135" height="8" rx="4" fill="#18A058" opacity="0.2"/>
  <rect x="175" y="160" width="100" height="8" rx="4" fill="#18A058" opacity="0.15"/>
  <circle cx="250" cy="210" r="40" fill="#18A058" opacity="0.15"/>
  <circle cx="250" cy="210" r="25" fill="#18A058" opacity="0.3"/>
  <path d="M250 185v50M225 210h50" stroke="#18A058" stroke-width="2" opacity="0.5"/>
  <rect x="70" y="130" width="60" height="60" rx="10" fill="#fff" stroke="#18A058" stroke-width="1.5" opacity="0.5"/>
  <circle cx="100" cy="150" r="8" fill="#18A058" opacity="0.3"/>
  <rect x="90" y="168" width="20" height="4" rx="2" fill="#18A058" opacity="0.2"/>
  <rect x="380" y="200" width="50" height="50" rx="10" fill="#fff" stroke="#18A058" stroke-width="1.5" opacity="0.5"/>
  <path d="M390 225l15-15M405 225L395 215" stroke="#18A058" stroke-width="2" opacity="0.4"/>
  <text x="250" y="320" text-anchor="middle" fill="#18A058" font-size="18" font-weight="700" opacity="0.6">ThinkPHP + Vue3 + Naive UI</text>
  <text x="250" y="345" text-anchor="middle" fill="#0d7a3e" font-size="14" opacity="0.4">企业级全栈后台管理系统</text>
</svg>
